# File created by Blade
# Date/Time:  Thu Sep 25 17:33:50 2014
# Frame Rate: 120.000 fps
#------------------------------------------------------
:FULLY-SPECIFIED
:DEGREES
449
root -6.436688 33.705627 -2.011844 14.035543 12.012116 27.609759
Spine 1.057806 -7.091680 -14.081125
Head -17.784920 22.295346 -8.755156
LeftShoulder 6.310353 7.496582 13.979974
LeftArm 74.359459 36.011582 -47.620204
LeftForeArm 33.065502 0.000000 109.200913
LeftHand -32.435288 -0.000000 51.416937
LeftHandThumb1 -26.253704 0.000000 33.147579
RightShoulder -11.695529 13.850239 -24.821144
RightArm 11.408643 -29.648987 76.184578
RightForeArm -29.002050 0.000000 129.530261
RightHand 2.740048 -0.000000 -48.139436
RightHandThumb1 -24.326973 -0.000000 -32.862282
LeftUpLeg -68.979996 35.290958 -12.163735
LeftLeg 96.910194 -0.000000 -0.000000
LeftFoot 8.584875 3.985136 -29.344889
LeftToeBase -1.482181 -0.000000 0.000000
RightUpLeg -17.774830 -7.882103 -22.447904
RightLeg 25.595290 -0.000000 -0.000000
RightFoot -14.294564 -20.762725 -8.506974
RightToeBase -0.193697 -0.000000 0.000000
450
root -6.417043 33.691212 -1.991870 13.982930 11.813961 27.165181
Spine 0.850328 -6.837899 -13.821760
Head -17.621068 22.335381 -8.579500
LeftShoulder 6.237788 7.634032 14.138107
LeftArm 74.381382 35.882274 -47.619707
LeftForeArm 33.166495 -0.000000 109.344353
LeftHand -32.587120 -0.000000 51.289985
LeftHandThumb1 -26.253704 0.000000 33.147579
RightShoulder -11.708709 13.907352 -24.857702
RightArm 11.389232 -29.778175 76.376922
RightForeArm -29.057328 -0.000000 129.552760
RightHand 2.603317 0.000000 -47.871545
RightHandThumb1 -24.326973 -0.000000 -32.862282
LeftUpLeg -67.296104 34.789768 -12.781593
LeftLeg 95.827044 -0.000000 -0.000000
LeftFoot 8.758328 3.160206 -30.305768
LeftToeBase -1.331241 -0.000000 0.000000
RightUpLeg -17.828492 -7.805815 -22.049297
RightLeg 25.440642 -0.000000 -0.000000
RightFoot -14.322802 -20.604568 -8.552232
RightToeBase -0.120091 -0.000000 0.000000
451
root -6.388882 33.676870 -1.968235 13.901303 11.669457 26.729836
Spine 0.678313 -6.613826 -13.520975
Head -17.396912 22.432753 -8.435040
LeftShoulder 6.209540 7.723332 14.225762
LeftArm 74.338729 35.755087 -47.649054
LeftForeArm 33.205257 -0.000000 109.497993
LeftHand -32.575357 0.000000 51.520570
LeftHandThumb1 -26.253704 0.000000 33.147579
RightShoulder -11.794875 13.797175 -24.901996
RightArm 11.628135 -30.016049 76.268160
RightForeArm -29.120232 -0.000000 129.520841
RightHand 2.418240 -0.000000 -47.855676
RightHandThumb1 -24.326973 -0.000000 -32.862282
LeftUpLeg -65.481105 34.205245 -13.237004
LeftLeg 94.489668 -0.000000 -0.000000
LeftFoot 9.119157 2.190941 -31.656998
LeftToeBase -1.330741 -0.000000 0.000000
RightUpLeg -17.819222 -7.825667 -21.659569
RightLeg 25.279843 -0.000000 -0.000000
RightFoot -14.314954 -20.405327 -8.691551
RightToeBase -0.163811 -0.000000 0.000000
452
root -6.358869 33.660544 -1.940488 13.800933 11.532847 26.243175
Spine 0.496147 -6.436732 -13.127150
Head -17.170859 22.550996 -8.340704
LeftShoulder 6.114545 7.767576 14.270791
LeftArm 74.204339 35.758439 -47.769927
LeftForeArm 33.267392 -0.000000 109.628985
LeftHand -32.638917 -0.000000 51.572539
LeftHandThumb1 -26.253704 0.000000 33.147579
RightShoulder -11.811078 13.833468 -24.961324
RightArm 11.758451 -30.187177 76.343438
RightForeArm -29.143687 0.000000 129.424659
RightHand 2.413688 0.000000 -47.957412
RightHandThumb1 -24.326973 -0.000000 -32.862282
LeftUpLeg -63.574124 33.564294 -13.471718
LeftLeg 92.920704 -0.000000 -0.000000
LeftFoot 9.730954 0.973784 -33.144423
LeftToeBase -1.367687 -0.000000 0.000000
RightUpLeg -17.773088 -7.735668 -21.233957
RightLeg 25.083309 -0.000000 -0.000000
RightFoot -14.312019 -20.288062 -8.771833
RightToeBase -0.180895 -0.000000 0.000000
453
root -6.323294 33.644119 -1.907974 13.687400 11.438440 25.776234
Spine 0.322408 -6.294688 -12.722490
Head -16.898791 22.702680 -8.279851
LeftShoulder 6.046545 7.828568 14.279171
LeftArm 74.034636 35.731615 -47.911551
LeftForeArm 33.273316 0.000000 109.805312
LeftHand -32.700850 -0.000000 51.468933
LeftHandThumb1 -26.253704 0.000000 33.147579
RightShoulder -11.797872 13.874075 -24.994825
RightArm 11.781261 -30.320297 76.453414
RightForeArm -29.056386 -0.000000 129.384256
RightHand 2.471305 -0.000000 -47.616606
RightHandThumb1 -24.326973 -0.000000 -32.862282
LeftUpLeg -61.542657 32.803044 -13.564493
LeftLeg 91.117705 -0.000000 -0.000000
LeftFoot 10.497974 -0.538951 -34.222912
LeftToeBase -2.021475 -0.000000 0.000000
RightUpLeg -17.687027 -7.690119 -20.832386
RightLeg 24.910929 -0.000000 -0.000000
RightFoot -14.309545 -20.125690 -8.871866
RightToeBase -0.306828 -0.000000 0.000000
454
root -6.288301 33.622952 -1.873576 13.558518 11.400324 25.237404
Spine 0.163176 -6.182641 -12.200018
Head -16.647635 22.861634 -8.259975
LeftShoulder 5.929483 7.910542 14.278607
LeftArm 73.961566 35.750348 -48.030947
LeftForeArm 33.310262 -0.000000 109.903153
LeftHand -32.691986 -0.000000 51.517127
LeftHandThumb1 -26.253704 0.000000 33.147579
RightShoulder -11.827250 13.869133 -25.075893
RightArm 11.860011 -30.518502 76.524615
RightForeArm -28.971967 -0.000000 129.294721
RightHand 2.529113 -0.000000 -47.811975
RightHandThumb1 -24.326973 -0.000000 -32.862282
LeftUpLeg -59.505133 31.971303 -13.482580
LeftLeg 89.127894 -0.000000 -0.000000
LeftFoot 11.430828 -2.138122 -35.070192
LeftToeBase -2.744835 -0.000000 0.000000
RightUpLeg -17.572313 -7.568222 -20.360398
RightLeg 24.755186 -0.000000 -0.000000
RightFoot -14.371258 -20.061898 -8.827858
RightToeBase -0.066312 -0.000000 0.000000
455
root -6.253531 33.599051 -1.834866 13.410475 11.355522 24.653509
Spine 0.008274 -6.081550 -11.624972
Head -16.417948 23.002188 -8.238485
LeftShoulder 5.758893 8.100051 14.244172
LeftArm 74.015220 35.714240 -48.022274
LeftForeArm 33.394328 -0.000000 109.976874
LeftHand -32.675638 0.000000 51.266402
LeftHandThumb1 -26.253704 0.000000 33.147579
RightShoulder -11.815139 13.819975 -25.119382
RightArm 12.027002 -30.713688 76.523262
RightForeArm -28.896506 0.000000 129.273578
RightHand 2.308634 -0.000000 -47.965867
RightHandThumb1 -24.326973 -0.000000 -32.862282
LeftUpLeg -57.387065 31.082239 -13.216078
LeftLeg 86.962429 -0.000000 -0.000000
LeftFoot 12.384429 -3.766793 -36.170479
LeftToeBase -3.137711 -0.000000 0.000000
RightUpLeg -17.445986 -7.456142 -19.845065
RightLeg 24.567119 -0.000000 -0.000000
RightFoot -14.355683 -19.906361 -8.969954
RightToeBase -0.478507 -0.000000 0.000000
456
root -6.215781 33.573947 -1.796615 13.250403 11.331396 24.057807
Spine -0.135070 -5.909344 -11.022056
Head -16.183536 23.012078 -8.213338
LeftShoulder 5.746456 8.074055 14.257571
LeftArm 73.832204 35.829769 -48.228291
LeftForeArm 33.559866 0.000000 110.047401
LeftHand -32.665748 -0.000000 51.246888
LeftHandThumb1 -26.253704 0.000000 33.147579
RightShoulder -11.856557 13.836980 -25.188043
RightArm 11.987190 -30.803475 76.635072
RightForeArm -28.869226 -0.000000 129.223406
RightHand 2.417095 -0.000000 -47.832865
RightHandThumb1 -24.326973 -0.000000 -32.862282
LeftUpLeg -55.231376 30.098237 -12.855783
LeftLeg 84.625258 -0.000000 -0.000000
LeftFoot 13.199331 -5.216328 -36.973096
LeftToeBase -3.184892 -0.000000 0.000000
RightUpLeg -17.309021 -7.309652 -19.324571
RightLeg 24.432832 -0.000000 -0.000000
RightFoot -14.409829 -19.833996 -8.917808
RightToeBase -0.548812 -0.000000 0.000000
457
root -6.175403 33.547165 -1.755895 13.070758 11.283944 23.421009
Spine -0.259109 -5.709810 -10.363554
Head -15.965810 23.115275 -8.169134
LeftShoulder 5.739279 8.054788 14.240244
LeftArm 73.686217 35.927425 -48.349525
LeftForeArm 33.569070 0.000000 110.145117
LeftHand -32.722672 -0.000000 51.047959
LeftHandThumb1 -26.253704 0.000000 33.147579
RightShoulder -11.891881 13.794337 -25.282121
RightArm 11.987398 -30.965305 76.671386
RightForeArm -28.972747 -0.000000 129.202377
RightHand 2.267368 -0.000000 -48.012751
RightHandThumb1 -24.326973 -0.000000 -32.862282
LeftUpLeg -53.073021 29.108392 -12.430152
LeftLeg 82.154345 -0.000000 -0.000000
LeftFoot 14.078709 -6.381329 -38.162365
LeftToeBase -3.011589 -0.000000 0.000000
RightUpLeg -17.174824 -7.136460 -18.770106
RightLeg 24.306401 -0.000000 -0.000000
RightFoot -14.411316 -19.817006 -8.932065
RightToeBase -0.678131 -0.000000 0.000000
458
root -6.128994 33.522675 -1.716314 12.915750 11.197156 22.853258
Spine -0.391855 -5.570305 -9.775718
Head -15.788258 23.359223 -8.184190
LeftShoulder 5.581033 8.086506 14.245361
LeftArm 73.613278 36.064072 -48.468370
LeftForeArm 33.499920 -0.000000 110.192605
LeftHand -32.663349 -0.000000 51.053708
LeftHandThumb1 -26.253704 0.000000 33.147579
RightShoulder -11.939719 13.688246 -25.375086
RightArm 12.160947 -31.090400 76.808720
RightForeArm -29.072200 0.000000 129.086501
RightHand 2.293935 -0.000000 -48.099876
RightHandThumb1 -24.326973 -0.000000 -32.862282
LeftUpLeg -50.915657 28.073516 -12.085433
LeftLeg 79.486957 -0.000000 -0.000000
LeftFoot 14.883859 -7.173527 -39.142716
LeftToeBase -3.349989 -0.000000 0.000000
RightUpLeg -17.088489 -6.880107 -18.299537
RightLeg 24.213269 -0.000000 -0.000000
RightFoot -14.472804 -19.806972 -8.876002
RightToeBase -0.554575 -0.000000 0.000000
459
root -6.077537 33.498003 -1.674577 12.743430 11.050792 22.346251
Spine -0.481027 -5.372478 -9.316280
Head -15.646935 23.576853 -8.076939
LeftShoulder 5.502382 8.130610 14.342425
LeftArm 73.582183 36.149010 -48.531320
LeftForeArm 33.318969 -0.000000 110.261176
LeftHand -32.634580 -0.000000 51.379727
LeftHandThumb1 -26.253704 0.000000 33.147579
RightShoulder -11.966745 13.741113 -25.450943
RightArm 12.061193 -31.190140 77.017029
RightForeArm -29.108190 -0.000000 129.067178
RightHand 2.415603 -0.000000 -47.970728
RightHandThumb1 -24.326973 -0.000000 -32.862282
LeftUpLeg -48.720352 27.032981 -11.785414
LeftLeg 76.666181 -0.000000 -0.000000
LeftFoot 15.472878 -7.534886 -40.307239
LeftToeBase -3.350908 -0.000000 0.000000
RightUpLeg -16.991482 -6.666157 -17.906851
RightLeg 24.151130 -0.000000 -0.000000
RightFoot -14.503663 -19.800435 -9.000225
RightToeBase -0.545808 -0.000000 0.000000
